<svg id="Capa_1" data-name="Capa 1" xmlns="http://www.w3.org/2000/svg" viewBox="0 0 458.64 130.74"><defs><style>.cls-1{fill:#a21c2f;fill-rule:evenodd;}</style></defs><title>logo-03</title><path class="cls-1" d="M1.14,2.34H23.22V4.77H17.94a2.35,2.35,0,0,0-1.84.66,3,3,0,0,0-.59,2.08V45a2.23,2.23,0,0,0,.75,1.91,5.55,5.55,0,0,0,3,.56H26a11.52,11.52,0,0,0,8.73-3.55q3.39-3.55,4.93-12.33h2.24L40.75,49.92H1.14V47.48H5a4.06,4.06,0,0,0,2.81-.76,3.15,3.15,0,0,0,.8-2.42V7.18A2.29,2.29,0,0,0,8,5.39a2.87,2.87,0,0,0-2-.62H1.14V2.34Z"/><path class="cls-1" d="M85.07,47.48a4.06,4.06,0,0,1-4.2-2.62L63.82,1.35H61.58L45.47,41.7a10.48,10.48,0,0,1-3,4.57,7.14,7.14,0,0,1-4.38,1.21v2.44H55.38V47.48H53.77a6.87,6.87,0,0,1-4.26-1.12A3.31,3.31,0,0,1,48,43.67,11.16,11.16,0,0,1,48.91,40l2.23-5.78H70l3.93,10.08a3.1,3.1,0,0,1,.23,1.15,1.47,1.47,0,0,1-.84,1.38,9.71,9.71,0,0,1-4.18.64H67.58v2.44h19V47.48ZM52.21,31.73,60.69,10.5,69,31.73Z"/><path class="cls-1" d="M1.14,54.28h22v2.44H19.33c-1.67,0-2.72.2-3.16.62A3.78,3.78,0,0,0,15.51,60V96c0,1.43.19,2.34.58,2.7a4,4,0,0,0,2.79.73h4.21v2.44H1.14V99.42H5.3a4.33,4.33,0,0,0,2.84-.64A4.22,4.22,0,0,0,8.78,96V60c0-1.36-.19-2.21-.58-2.54a5.45,5.45,0,0,0-3.32-.73H1.14V54.28Z"/><path class="cls-1" d="M23,54.28v2.44h2.18a5.77,5.77,0,0,1,2.45.45,9.33,9.33,0,0,1,2.2,2.06l.55.61V92a7.23,7.23,0,0,1-2,5.15A7.47,7.47,0,0,1,23,99.42v2.44H41.08V99.42c-2.75,0-4.77-.7-6.08-2s-2-3.22-2-5.83V62.87l29.79,39h3V64.08A8.87,8.87,0,0,1,66.73,60a5.8,5.8,0,0,1,2.18-2.58,8,8,0,0,1,3.8-.7V54.28H56.17v2.44a6.81,6.81,0,0,1,5.06,1.86c1.24,1.31,1.86,3.32,1.86,6V91.68L34.3,54.28Z"/><path class="cls-1" d="M72,54.28h38.69l.66,16.47h-2.25q-1.47-8.48-4.14-11c-2-2-4.93-3-8.7-3H88.69a2.19,2.19,0,0,0-1.63.52,2.16,2.16,0,0,0-.52,1.59V76h4.1a7,7,0,0,0,5.44-2.26c1.36-1.51,2.08-3.82,2.19-7h2.31V88.29H98.27Q98,83,96.08,80.67a6.83,6.83,0,0,0-5.44-2.27h-4.1V96.5a2.8,2.8,0,0,0,.77,2.26,4.12,4.12,0,0,0,2.66.66h4.94v2.44H72V99.42h4.9a3,3,0,0,0,2.12-.59,2.55,2.55,0,0,0,.62-1.94V59.09A2.22,2.22,0,0,0,79,57.27a3.65,3.65,0,0,0-2.31-.55H72V54.28Z"/><path class="cls-1" d="M152.09,65.31a22.1,22.1,0,0,0-8.24-8.86,21.49,21.49,0,0,0-11.28-3.16,19.74,19.74,0,0,0-10.65,3.2,22.34,22.34,0,0,0-8.06,8.85,26.82,26.82,0,0,0-3,12.65,27.53,27.53,0,0,0,3,12.94,22.56,22.56,0,0,0,8.07,9,20,20,0,0,0,10.74,3.14,20.93,20.93,0,0,0,11.09-3.2,22.42,22.42,0,0,0,8.23-8.93,27.3,27.3,0,0,0,3-12.83A27,27,0,0,0,152.09,65.31Zm-7,26a14.94,14.94,0,0,1-5,7A12.65,12.65,0,0,1,123,95.66q-4-4.91-4-17.67,0-11.77,3.9-17a12.12,12.12,0,0,1,10.17-5.21,11.93,11.93,0,0,1,7.17,2.32,14.58,14.58,0,0,1,5,7.13Q147,70.06,147,78.61,147,86.46,145.11,91.28Z"/><path class="cls-1" d="M197.62,91.38a12.64,12.64,0,0,1-1,5.19Q195.72,98,194.72,98a2.28,2.28,0,0,1-1.8-1.2,17.7,17.7,0,0,1-2.08-5.78,35.86,35.86,0,0,0-2.41-7.78,8.93,8.93,0,0,0-2.79-3.12,22.77,22.77,0,0,0-6.37-2.46q6.33-.65,9.29-2.11a11,11,0,0,0,4.52-3.92,10.23,10.23,0,0,0,1.57-5.62,10.5,10.5,0,0,0-3.94-8.52q-3.93-3.24-11.08-3.25H155v2.44h4.66a3.45,3.45,0,0,1,2.25.61,2.2,2.2,0,0,1,.74,1.82v38a2.07,2.07,0,0,1-.72,1.67,3.54,3.54,0,0,1-2.27.61H155v2.44h22V99.42h-4.53a3.83,3.83,0,0,1-2.38-.61,2,2,0,0,1-.61-1.67V78.47h3.9a11.89,11.89,0,0,1,5.31,1.09A7.52,7.52,0,0,1,182,82.45a16.8,16.8,0,0,1,1.53,6.08c.56,4.91,1.06,7.94,1.52,9.1a7.14,7.14,0,0,0,2.58,3.51,7,7,0,0,0,4.07,1.18q7.47,0,8.08-10.94ZM175.19,76.16h-5.65V59.06a1.92,1.92,0,0,1,.91-1.82c.6-.35,2.17-.52,4.71-.52,3.84,0,6.42.26,7.73.8a6.35,6.35,0,0,1,3.17,3,12.19,12.19,0,0,1,1.21,5.93c0,3.63-1.06,6.16-3.2,7.59S179,76.16,175.19,76.16Z"/><path class="cls-1" d="M196.76,54.28v2.44h4a4.78,4.78,0,0,1,2.75.56,2.09,2.09,0,0,1,.74,1.79V91.84c0,2.72-.53,4.62-1.58,5.68s-3,1.71-5.94,1.9v2.44h17.93V99.42a11.4,11.4,0,0,1-4.74-1,5.5,5.5,0,0,1-2.2-2.35,10.56,10.56,0,0,1-.77-4.61V56.88l16.9,45h2.21l15.62-45.17V97.07a2,2,0,0,1-.85,1.69,4.14,4.14,0,0,1-2.59.66H234.2v2.44h21.88V99.42h-3.65a5.51,5.51,0,0,1-3-.61,2,2,0,0,1-.87-1.74V59.45a2.66,2.66,0,0,1,.73-2.12,4.6,4.6,0,0,1,2.82-.61h4V54.28h-16.3l-13,37.58L212.66,54.28Z"/><path class="cls-1" d="M299.06,99.42a4.08,4.08,0,0,1-4.21-2.62L277.8,53.29h-2.24L259.45,93.65a10.52,10.52,0,0,1-3,4.57,7.18,7.18,0,0,1-4.38,1.2v2.44h17.27V99.42h-1.62a6.89,6.89,0,0,1-4.26-1.12A3.29,3.29,0,0,1,262,95.61,11,11,0,0,1,262.9,92l2.23-5.77h18.8l3.93,10.07a3.16,3.16,0,0,1,.24,1.15,1.5,1.5,0,0,1-.85,1.39,9.85,9.85,0,0,1-4.17.63h-1.52v2.44h19V99.42ZM266.19,83.67l8.48-21.23L283,83.67Z"/><path class="cls-1" d="M333,58a25,25,0,0,0-6.31-3.63,17.67,17.67,0,0,0-6-1,18.44,18.44,0,0,0-10.34,3.14,22.94,22.94,0,0,0-7.88,9.37,29.79,29.79,0,0,0-3.07,13.35,25.77,25.77,0,0,0,3,12.3,21.54,21.54,0,0,0,8,8.61,20.87,20.87,0,0,0,10.94,3,17,17,0,0,0,12.17-4.58c3.22-3,5.16-7.42,5.83-13.08H337q-1.2,7.5-5.12,11.23a13.62,13.62,0,0,1-9.72,3.73,12.29,12.29,0,0,1-10.31-4.77q-4.32-5.64-4.32-16.36,0-12.73,3.77-18.09t9.76-5.34a12,12,0,0,1,9.53,4.81c2.15,2.55,3.93,6.54,5.35,11.93h2.18l-.93-19.18h-2L333,58Z"/><path class="cls-1" d="M339.62,54.28h21.95v2.44h-3.76c-1.67,0-2.72.2-3.16.62A3.78,3.78,0,0,0,354,60V96c0,1.43.19,2.34.58,2.7a4,4,0,0,0,2.79.73h4.21v2.44H339.62V99.42h4.16a4.33,4.33,0,0,0,2.84-.64,4.22,4.22,0,0,0,.64-2.79V60c0-1.36-.19-2.21-.58-2.54a5.45,5.45,0,0,0-3.32-.73h-3.74V54.28Z"/><path class="cls-1" d="M403.47,65.31a22.1,22.1,0,0,0-8.24-8.86A21.49,21.49,0,0,0,384,53.29a19.74,19.74,0,0,0-10.65,3.2,22.44,22.44,0,0,0-8.07,8.85A26.93,26.93,0,0,0,362.29,78a27.53,27.53,0,0,0,3,12.94,22.47,22.47,0,0,0,8.06,9,20,20,0,0,0,10.75,3.14,20.93,20.93,0,0,0,11.09-3.2,22.49,22.49,0,0,0,8.23-8.93,27.3,27.3,0,0,0,3-12.83A27,27,0,0,0,403.47,65.31Zm-7,26a15,15,0,0,1-5,7,12.67,12.67,0,0,1-17.14-2.67q-4-4.91-4-17.67,0-11.77,3.9-17a12.12,12.12,0,0,1,10.17-5.21,12,12,0,0,1,7.17,2.32,14.5,14.5,0,0,1,5,7.13q1.74,4.82,1.74,13.37A35.84,35.84,0,0,1,396.48,91.28Z"/><path class="cls-1" d="M407.41,54.28h11.35l28.79,37.4V64.63c0-2.73-.62-4.74-1.86-6a6.81,6.81,0,0,0-5.06-1.86V54.28h16.54v2.44a8,8,0,0,0-3.8.7A5.87,5.87,0,0,0,451.18,60a9,9,0,0,0-.93,4.08v37.78h-3l-29.78-39V91.62c0,2.61.65,4.54,2,5.83s3.33,1.93,6.08,2v2.44H407.41V99.42a7.43,7.43,0,0,0,5.39-2.23,7.2,7.2,0,0,0,2-5.15V59.84l-.55-.61a9.33,9.33,0,0,0-2.2-2.06,5.77,5.77,0,0,0-2.45-.45h-2.18Z"/><path class="cls-1" d="M139.69,124.22h-.53c-.28,3.41-1.75,5.27-3.61,5.27-2.26,0-3.22-2.39-3.22-7.17,0-4.95.75-7.35,2.92-7.35,1.71,0,3.38,2,3.85,5.62h.51l-.13-6H139l-.36.62c-.22.36-.37.58-.58.58-.47,0-1.15-1.33-2.94-1.33-2.61,0-5.06,2.89-5.06,7.8s2.43,7.81,5.23,7.81c2.41,0,4.09-2.11,4.39-5.89Z"/><path class="cls-1" d="M149.43,127.1c0,1.41-.15,2.09-.69,2.09-.38,0-.53-.4-.53-1.28v-5.74c0-2.14-.77-3.18-3.29-3.18-2,0-3.16,1-3.16,2.26a1.29,1.29,0,0,0,1.29,1.41,1.16,1.16,0,0,0,1.19-1.13c0-1.07-1.07-.81-1.07-1.3s.58-.84,1.41-.84c1.24,0,1.75.64,1.75,2v1.4a6.83,6.83,0,0,1-2.28,1.05c-1.94.66-2.9,1.41-2.9,3.22a2.75,2.75,0,0,0,2.66,2.93,2.85,2.85,0,0,0,2.59-1.86c.17,1.24.81,1.88,1.79,1.88s1.73-.81,1.73-2.41v-.45Zm-3.1-1.07c0,2-.89,3.1-1.81,3.1s-1.24-.69-1.24-2,.06-2.11.92-2.65a11.88,11.88,0,0,0,2.13-1.17Z"/><path class="cls-1" d="M157.84,115.06c-.15.62-.45.92-1,.92a2.14,2.14,0,0,1-.58-.11l-1.22-.36a3.61,3.61,0,0,0-.94-.17c-.87,0-1.53.66-1.77,1.92h.45c.19-.71.45-.94,1-.94a2.49,2.49,0,0,1,.62.13l1.22.36a2.55,2.55,0,0,0,.81.15c.92,0,1.54-.64,1.82-1.9Z"/><path class="cls-1" d="M150.71,129.77h4.57v-.49H155c-.92,0-1-.22-1-1.2v-4.67c0-2.42.88-3.72,2-3.72.79,0,1,.6,1,1.75v6.64c0,1-.11,1.2-1,1.2h-.18v.49h4.42v-.49h-.3c-.91,0-1-.22-1-1.2v-5.51c0-2.34-.56-3.58-2.33-3.58a2.89,2.89,0,0,0-2.65,2.07v-2a23.43,23.43,0,0,1-3.11.17v.45h.34c.92,0,1,.22,1,1.2v7.19c0,1-.1,1.2-1,1.2h-.34v.49Z"/><path class="cls-1" d="M163.88,127.36v-8.29a25.49,25.49,0,0,1-2.86.17h-.41v.45H161c.92,0,1,.22,1,1.2v5.55c0,2.41.53,3.58,2.35,3.58a2.83,2.83,0,0,0,2.62-2.11v1.86h3.14v-.45h-.34c-.92,0-1-.21-1-1.2v-9.05a25.77,25.77,0,0,1-2.86.17h-.38v.45h.34c.92,0,1,.22,1,1.2v4.5c0,2.46-.73,3.72-1.95,3.72-.79,0-1-.6-1-1.75Z"/><path class="cls-1" d="M177.75,126.67c-.34,1.8-1.32,2.8-2.49,2.8-1.52,0-2.14-1.39-2.14-4.19,0-.32,0-.59,0-.87h5.13v-.13c0-3.35-1.54-5.29-3.61-5.29S171,121.16,171,124.6s1.71,5.42,3.86,5.42c1.84,0,3.08-1.17,3.42-3.35Zm-4.61-3.41c0-2.59.28-3.82,1.5-3.82s1.62,1.17,1.62,3.62c0,.26,0,.54,0,.84h-3.1Z"/><path class="cls-1" d="M179.25,129.77h4.59v-.49h-.32c-.92,0-1-.22-1-1.2V114.7a28.43,28.43,0,0,1-2.86.17h-.38v.45h.34c.92,0,1,.21,1,1.19v11.57c0,1-.1,1.2-1,1.2h-.34v.49Z"/><path class="cls-1" d="M193.19,127.1c0,1.41-.15,2.09-.69,2.09-.38,0-.53-.4-.53-1.28v-5.74c0-2.14-.77-3.18-3.29-3.18-2,0-3.16,1-3.16,2.26a1.29,1.29,0,0,0,1.28,1.41,1.16,1.16,0,0,0,1.2-1.13c0-1.07-1.07-.81-1.07-1.3s.58-.84,1.41-.84c1.24,0,1.75.64,1.75,2v1.4a6.83,6.83,0,0,1-2.28,1.05c-1.94.66-2.9,1.41-2.9,3.22a2.75,2.75,0,0,0,2.66,2.93,2.85,2.85,0,0,0,2.59-1.86c.17,1.24.81,1.88,1.79,1.88s1.73-.81,1.73-2.41v-.45Zm-3.1-1.07c0,2-.89,3.1-1.81,3.1s-1.24-.69-1.24-2,.06-2.11.92-2.65a11.88,11.88,0,0,0,2.13-1.17Z"/><path class="cls-1" d="M195,129.77h.5c0-.56.12-.79.44-.79.56,0,1.28,1,2.82,1a3.13,3.13,0,0,0,3-3.11c0-1.82-1.36-2.59-3.5-3.7-1.28-.66-2.07-1.06-2.07-2a1.69,1.69,0,0,1,1.71-1.65c1.26,0,2.43,1.28,2.84,3.55h.51l0-3.87h-.51c0,.54-.08.79-.4.79-.54,0-1.26-1-2.61-1a2.94,2.94,0,0,0-2.8,2.92c0,1.82,1.41,2.37,3.33,3.44,1.41.77,2.14,1.32,2.14,2.39a1.73,1.73,0,0,1-1.77,1.75c-1.48,0-3-1.54-3.14-4.1h-.51l-.05,4.36Z"/><path class="cls-1" d="M207.62,129.77H212v-.49h-.28c-1.38,0-1.57-.79-1.57-2.61V115.44l3.52,14.33h.49l3.48-14.41V128c0,1-.26,1.24-1.24,1.24h-.6v.49h5.53v-.49h-.55c-1,0-1.24-.24-1.24-1.24V116.51c0-1,.25-1.24,1.24-1.24h.55v-.47H217l-2.58,10.93-2.63-10.93h-4.2v.47h.74c.88,0,1.11.13,1.11,1.11v10.21c0,1.88-.32,2.69-1.68,2.69h-.17v.49Z"/><path class="cls-1" d="M229,126.67c-.34,1.8-1.33,2.8-2.5,2.8-1.52,0-2.13-1.39-2.13-4.19,0-.32,0-.59,0-.87h5.12v-.13c0-3.35-1.54-5.29-3.61-5.29s-3.63,2.17-3.63,5.61S224,130,226.17,130c1.83,0,3.07-1.17,3.41-3.35Zm-4.61-3.41c0-2.59.27-3.82,1.49-3.82s1.62,1.17,1.62,3.62c0,.26,0,.54,0,.84h-3.09Z"/><path class="cls-1" d="M239.06,129.32c-.92,0-1-.21-1-1.2V114.8h-3.23v.49h.3c.92,0,1,.2,1,1.18v4a2.27,2.27,0,0,0-2-1.45c-1.84,0-3.37,2-3.37,5.5s1.43,5.49,3.07,5.49c1.15,0,1.9-.66,2.43-2v1.82h3.12v-.45Zm-4.7,0c-1.21,0-1.55-1.6-1.55-5,0-3.14.29-4.61,1.6-4.61s1.79,1.6,1.79,4.8S235.56,129.28,234.36,129.28Z"/><path class="cls-1" d="M241.32,115.76a1.16,1.16,0,1,0,2.31,0,1.16,1.16,0,1,0-2.31,0Z"/><path class="cls-1" d="M240.26,129.77h4.59v-.49h-.32c-.92,0-1-.22-1-1.2v-9a25.77,25.77,0,0,1-2.86.17h-.38v.45h.34c.92,0,1,.22,1,1.2v7.19c0,1-.1,1.2-1,1.2h-.34v.49Z"/><path class="cls-1" d="M249.69,119c-2,0-3.88,2.24-3.88,5.48s1.92,5.51,3.88,5.51,3.89-2.26,3.89-5.51S251.65,119,249.69,119Zm0,10.54c-1.45,0-1.79-1.68-1.79-5.06s.34-5,1.79-5,1.82,1.64,1.82,5S251.14,129.55,249.69,129.55Z"/><path class="cls-1" d="M255.24,129.77h.49c0-.56.13-.79.45-.79.56,0,1.28,1,2.82,1a3.13,3.13,0,0,0,3-3.11c0-1.82-1.37-2.59-3.5-3.7-1.28-.66-2.07-1.06-2.07-2a1.68,1.68,0,0,1,1.71-1.65c1.25,0,2.43,1.28,2.83,3.55h.52l0-3.87h-.51c0,.54-.09.79-.41.79-.53,0-1.26-1-2.6-1a2.93,2.93,0,0,0-2.8,2.92c0,1.82,1.41,2.37,3.33,3.44,1.41.77,2.14,1.32,2.14,2.39a1.73,1.73,0,0,1-1.78,1.75c-1.47,0-2.94-1.54-3.13-4.1h-.52l0,4.36Z"/><path class="cls-1" d="M276.37,129.32c-.91,0-1-.21-1-1.2V114.8h-3.22v.49h.29c.92,0,1.05.2,1.05,1.18v4c-.58-1-1.19-1.45-2-1.45-1.83,0-3.37,2-3.37,5.5s1.43,5.49,3.07,5.49c1.16,0,1.9-.66,2.44-2v1.82h3.11v-.45Zm-4.69,0c-1.22,0-1.56-1.6-1.56-5,0-3.14.3-4.61,1.6-4.61s1.79,1.6,1.79,4.8S272.87,129.28,271.68,129.28Z"/><path class="cls-1" d="M284.27,126.67c-.34,1.8-1.32,2.8-2.5,2.8-1.51,0-2.13-1.39-2.13-4.19,0-.32,0-.59,0-.87h5.12v-.13c0-3.35-1.53-5.29-3.6-5.29s-3.63,2.17-3.63,5.61,1.71,5.42,3.86,5.42c1.84,0,3.08-1.17,3.42-3.35Zm-4.61-3.41c0-2.59.28-3.82,1.5-3.82s1.62,1.17,1.62,3.62c0,.26,0,.54,0,.84h-3.1Z"/><path class="cls-1" d="M300.35,124.22h-.54c-.28,3.41-1.75,5.27-3.61,5.27-2.26,0-3.22-2.39-3.22-7.17,0-4.95.75-7.35,2.93-7.35,1.7,0,3.37,2,3.84,5.62h.51l-.13-6h-.47l-.36.62c-.21.36-.36.58-.58.58-.47,0-1.15-1.33-2.94-1.33-2.61,0-5.06,2.89-5.06,7.8s2.43,7.81,5.23,7.81c2.41,0,4.1-2.11,4.4-5.89Z"/><path class="cls-1" d="M305.6,119c-2,0-3.89,2.24-3.89,5.48s1.92,5.51,3.89,5.51,3.88-2.26,3.88-5.51S307.56,119,305.6,119Zm0,10.54c-1.45,0-1.8-1.68-1.8-5.06s.35-5,1.8-5,1.81,1.64,1.81,5S307.05,129.55,305.6,129.55Z"/><path class="cls-1" d="M310.57,129.77h4.27v-.49h-.09c-.85,0-.93-.3-.93-1.2v-4.67c0-2.35.44-3.63,1.72-3.63.77,0,1,.55,1,1.66v6.64c0,1-.13,1.2-1,1.2h-.11v.49h4.14v-.49h-.1c-.9,0-1-.28-1-1.2v-4.67c0-2.35.45-3.63,1.73-3.63.77,0,1,.55,1,1.66v6.64c0,.9-.11,1.2-1,1.2h-.08v.49h4.25v-.49H324c-.92,0-1-.22-1-1.2v-5.51c0-2.37-.57-3.58-2.34-3.58a2.59,2.59,0,0,0-2.37,1.75,2.19,2.19,0,0,0-2.22-1.75,2.74,2.74,0,0,0-2.37,1.71v-1.63a23.59,23.59,0,0,1-3.12.17v.45h.34c.92,0,1,.22,1,1.2v7.19c0,1-.11,1.2-1,1.2h-.34v.49Z"/><path class="cls-1" d="M328.07,127.36v-8.29a25.49,25.49,0,0,1-2.86.17h-.4v.45h.34c.92,0,1,.22,1,1.2v5.55c0,2.41.54,3.58,2.35,3.58a2.83,2.83,0,0,0,2.63-2.11v1.86h3.14v-.45h-.35c-.91,0-1-.21-1-1.2v-9.05a25.77,25.77,0,0,1-2.86.17h-.38v.45H330c.91,0,1,.22,1,1.2v4.5c0,2.46-.72,3.72-1.94,3.72-.79,0-1-.6-1-1.75Z"/><path class="cls-1" d="M335.2,129.77h4.57v-.49h-.3c-.91,0-1-.22-1-1.2v-4.67c0-2.42.87-3.72,1.94-3.72.79,0,1,.6,1,1.75v6.64c0,1-.11,1.2-1,1.2h-.17v.49h4.42v-.49h-.3c-.92,0-1-.22-1-1.2v-5.51c0-2.34-.55-3.58-2.32-3.58a2.89,2.89,0,0,0-2.65,2.07v-2a23.59,23.59,0,0,1-3.12.17v.45h.35c.91,0,1,.22,1,1.2v7.19c0,1-.11,1.2-1,1.2h-.35v.49Z"/><path class="cls-1" d="M346.54,115.76a1.15,1.15,0,1,0,2.3,0,1.15,1.15,0,1,0-2.3,0Z"/><path class="cls-1" d="M345.47,129.77h4.59v-.49h-.32c-.92,0-1-.22-1-1.2v-9a26.05,26.05,0,0,1-2.86.17h-.39v.45h.34c.92,0,1,.22,1,1.2v7.19c0,1-.11,1.2-1,1.2h-.34v.49Z"/><path class="cls-1" d="M358.41,126.52h-.56c-.49,1.86-1.47,2.84-2.6,2.84-1.62,0-2.09-1.58-2.09-4.89s.4-5,2.07-5a1.14,1.14,0,0,1,1.26,1c0,.62-.86,1.11-.86,1.85a1.12,1.12,0,0,0,1.2,1.14,1.37,1.37,0,0,0,1.3-1.52,3,3,0,0,0-2.88-2.88c-2.37,0-4.19,2.15-4.19,5.57S352.73,130,355,130c1.58,0,3-1.28,3.46-3.48Z"/><path class="cls-1" d="M367.74,127.1c0,1.41-.15,2.09-.69,2.09-.38,0-.53-.4-.53-1.28v-5.74c0-2.14-.77-3.18-3.29-3.18-2,0-3.16,1-3.16,2.26a1.29,1.29,0,0,0,1.28,1.41,1.17,1.17,0,0,0,1.2-1.13c0-1.07-1.07-.81-1.07-1.3s.58-.84,1.41-.84c1.24,0,1.75.64,1.75,2v1.4a6.83,6.83,0,0,1-2.28,1.05c-1.95.66-2.91,1.41-2.91,3.22a2.75,2.75,0,0,0,2.67,2.93,2.83,2.83,0,0,0,2.58-1.86c.18,1.24.82,1.88,1.8,1.88s1.73-.81,1.73-2.41v-.45Zm-3.1-1.07c0,2-.9,3.1-1.81,3.1s-1.24-.69-1.24-2,.06-2.11.92-2.65a11.88,11.88,0,0,0,2.13-1.17Z"/><path class="cls-1" d="M376.45,126.52h-.56c-.49,1.86-1.47,2.84-2.6,2.84-1.63,0-2.1-1.58-2.1-4.89s.41-5,2.07-5a1.13,1.13,0,0,1,1.26,1c0,.62-.85,1.11-.85,1.85a1.12,1.12,0,0,0,1.2,1.14,1.37,1.37,0,0,0,1.3-1.52,3,3,0,0,0-2.88-2.88c-2.37,0-4.19,2.15-4.19,5.57S370.77,130,373,130c1.58,0,3-1.28,3.46-3.48Z"/><path class="cls-1" d="M378.47,115.76a1.16,1.16,0,1,0,2.31,0,1.16,1.16,0,1,0-2.31,0Z"/><path class="cls-1" d="M377.41,129.77H382v-.49h-.33c-.91,0-1-.22-1-1.2v-9a25.77,25.77,0,0,1-2.86.17h-.38v.45h.34c.92,0,1,.22,1,1.2v7.19c0,1-.1,1.2-1,1.2h-.34v.49Z"/><path class="cls-1" d="M389,115.4c.32-.28.49-.49.49-.72a.54.54,0,0,0-.58-.56,1.05,1.05,0,0,0-.9.53l-2.49,3.18h.66L389,115.4Z"/><path class="cls-1" d="M386.84,119c-2,0-3.88,2.24-3.88,5.48s1.92,5.51,3.88,5.51,3.89-2.26,3.89-5.51S388.8,119,386.84,119Zm0,10.54c-1.45,0-1.79-1.68-1.79-5.06s.34-5,1.79-5,1.82,1.64,1.82,5S388.29,129.55,386.84,129.55Z"/><path class="cls-1" d="M391.81,129.77h4.57v-.49h-.3c-.91,0-1-.22-1-1.2v-4.67c0-2.42.87-3.72,1.94-3.72.79,0,1,.6,1,1.75v6.64c0,1-.11,1.2-1,1.2h-.17v.49h4.42v-.49H401c-.92,0-1.05-.22-1.05-1.2v-5.51c0-2.34-.55-3.58-2.32-3.58a2.89,2.89,0,0,0-2.65,2.07v-2a23.59,23.59,0,0,1-3.12.17v.45h.35c.91,0,1,.22,1,1.2v7.19c0,1-.11,1.2-1,1.2h-.35v.49Z"/><path class="cls-1" d="M407.53,129.77H408c.3-.77.65-1.16.88-1.16.51,0,1.45,1.48,3.63,1.48a4.24,4.24,0,0,0,4.18-4.34c0-2-1.24-3.5-3.75-4.63-2.33-1-3.91-1.39-3.91-3.52a2.52,2.52,0,0,1,2.67-2.58c1.88,0,3.33,1.68,3.93,5h.51l-.07-5h-.51c-.21.56-.47.84-.68.84-.49,0-1.37-1.31-3.22-1.31a3.93,3.93,0,0,0-4.12,4.06c0,2.63,1.85,3.48,4.73,4.72,2,.85,3.1,1.75,3.1,3.52a2.72,2.72,0,0,1-2.78,2.8c-2.24,0-3.84-2-4.5-5.77h-.51l0,5.94Z"/><path class="cls-1" d="M419,128.87a1.15,1.15,0,0,0,1.15,1.13,1.13,1.13,0,1,0-1.15-1.13Z"/><path class="cls-1" d="M434.17,126.39v.94c0,1-.3,1.5-.82,1.5-.81,0-.81-1-.89-2.44-.13-2.36-.79-3.69-2.78-4.46,2.39-.44,3.76-1.88,3.76-3.69a3.27,3.27,0,0,0-1.37-2.65,6,6,0,0,0-3.65-.79h-5.59v.47h.64c1,0,1.24.24,1.24,1.24V128c0,1-.26,1.24-1.24,1.24h-.64v.49h5.74v-.49h-.66c-1,0-1.22-.24-1.22-1.24v-5.89h1c1.84,0,2.42.42,2.5,2.22s0,3.16.56,4.27a2.12,2.12,0,0,0,1.94,1.3c1.3,0,2.05-.9,2.05-2.56v-1Zm-6.26-4.76h-1.22v-5.2c0-1,.15-1.18,1.33-1.18,2.15,0,3.16.79,3.16,3C431.18,120.76,430.17,121.63,427.91,121.63Z"/><path class="cls-1" d="M436.15,128.87A1.15,1.15,0,0,0,437.3,130a1.13,1.13,0,1,0-1.15-1.13Z"/><path class="cls-1" d="M445.76,114.8H440v.47h.64c1,0,1.24.24,1.24,1.24V128c0,1-.25,1.24-1.24,1.24H440v.49h10.25l.15-5.89h-.47c-.51,3.56-2.05,5.38-4.5,5.38-1.46,0-1.56-.18-1.56-1.69V116.51c0-1,.23-1.24,1.21-1.24h.67v-.47Z"/><path class="cls-1" d="M452.16,128.87a1.15,1.15,0,0,0,1.15,1.13,1.13,1.13,0,1,0-1.15-1.13Z"/></svg>